<svg width="168" height="73" viewBox="0 0 168 73" fill="none" xmlns="http://www.w3.org/2000/svg">
<path d="M89.0436 47.45C86.9675 47.45 85.2444 47.1661 83.8742 46.5983C82.504 46.0103 81.4659 45.2498 80.7601 44.3171C80.0542 43.3843 79.6805 42.3907 79.639 41.3362C79.639 41.174 79.7013 41.0321 79.8258 40.9104C79.9712 40.7684 80.1372 40.6975 80.3241 40.6975L84.2479 40.6975C84.5385 40.6975 84.7565 40.7482 84.9018 40.8496C85.0679 40.951 85.2133 41.0828 85.3378 41.245C85.5039 41.5491 85.7323 41.8432 86.0229 42.1271C86.3343 42.4109 86.7288 42.6441 87.2063 42.8266C87.7046 42.9889 88.317 43.07 89.0436 43.07C90.2478 43.07 91.1508 42.8875 91.7529 42.5225C92.3757 42.1575 92.6871 41.6607 92.6871 41.0321C92.6871 40.5859 92.5211 40.2209 92.1889 39.9371C91.8567 39.6329 91.3169 39.3693 90.5695 39.1462C89.8429 38.9029 88.8672 38.6596 87.6423 38.4162C86.0645 38.0918 84.715 37.6761 83.5939 37.1691C82.4936 36.6419 81.6528 35.9626 81.0715 35.1312C80.4902 34.2796 80.1995 33.2251 80.1995 31.9679C80.1995 30.731 80.5525 29.6258 81.2583 28.6525C81.9849 27.6791 82.9918 26.9187 84.279 26.3712C85.5662 25.8237 87.0921 25.55 88.8568 25.55C90.2893 25.55 91.5453 25.7325 92.6249 26.0975C93.7252 26.4625 94.649 26.9491 95.3964 27.5575C96.1438 28.1658 96.7044 28.8147 97.0781 29.5041C97.4725 30.1733 97.6801 30.8323 97.7009 31.4812C97.7009 31.6434 97.6386 31.7955 97.514 31.9375C97.3895 32.0591 97.2338 32.12 97.0469 32.12L92.9363 32.12C92.7079 32.12 92.5107 32.0794 92.3446 31.9983C92.1785 31.9172 92.0332 31.7854 91.9086 31.6029C91.7841 31.1568 91.4519 30.7715 90.9121 30.4471C90.3931 30.1023 89.708 29.93 88.8568 29.93C87.9433 29.93 87.2271 30.0922 86.708 30.4166C86.2098 30.7208 85.9606 31.1973 85.9606 31.8462C85.9606 32.2518 86.0956 32.6066 86.3655 32.9108C86.6561 33.215 87.1233 33.4786 87.7668 33.7016C88.4312 33.9247 89.3343 34.1579 90.4761 34.4012C92.3654 34.7459 93.8913 35.1819 95.0539 35.7091C96.2165 36.2161 97.0677 36.8853 97.6075 37.7166C98.1472 38.5278 98.4171 39.5518 98.4171 40.7887C98.4171 42.1676 98.0123 43.364 97.2026 44.3779C96.4137 45.3715 95.3134 46.1319 93.9017 46.6591C92.4899 47.1864 90.8706 47.45 89.0436 47.45Z" fill="#1B1D41"/>
<path d="M105.334 47.1458C104.981 47.1458 104.701 47.0444 104.493 46.8416C104.285 46.6389 104.161 46.4057 104.119 46.1421L100.725 26.7058C100.704 26.6653 100.694 26.6247 100.694 26.5841C100.694 26.5436 100.694 26.5132 100.694 26.4929C100.694 26.3307 100.756 26.1887 100.881 26.0671C101.026 25.9251 101.182 25.8541 101.348 25.8541L105.209 25.8541C105.791 25.8541 106.112 26.0772 106.175 26.5233L108.199 38.4162L110.441 31.39C110.503 31.2278 110.607 31.0554 110.752 30.8729C110.898 30.6701 111.137 30.5687 111.469 30.5687L113.711 30.5687C114.064 30.5687 114.313 30.6701 114.458 30.8729C114.604 31.0554 114.697 31.2278 114.739 31.39L116.981 38.3858L119.005 26.5233C119.067 26.0772 119.389 25.8541 119.97 25.8541L123.832 25.8541C124.019 25.8541 124.174 25.9251 124.299 26.0671C124.423 26.1887 124.486 26.3307 124.486 26.4929C124.486 26.5132 124.486 26.5436 124.486 26.5841C124.486 26.6247 124.486 26.6653 124.486 26.7058L121.091 46.1421C121.05 46.4057 120.925 46.6389 120.718 46.8416C120.51 47.0444 120.23 47.1458 119.877 47.1458L116.918 47.1458C116.565 47.1458 116.296 47.0546 116.109 46.8721C115.922 46.6896 115.797 46.5172 115.735 46.355L112.59 37.6558L109.445 46.355C109.382 46.5172 109.258 46.6896 109.071 46.8721C108.905 47.0546 108.645 47.1458 108.292 47.1458L105.334 47.1458Z" fill="#1B1D41"/>
<path d="M125.538 47.1458C125.372 47.1458 125.216 47.085 125.071 46.9633C124.946 46.8214 124.884 46.6693 124.884 46.5071C124.884 46.4057 124.894 46.3144 124.915 46.2333L132.233 26.7058C132.295 26.4827 132.42 26.2901 132.607 26.1279C132.814 25.9454 133.095 25.8541 133.448 25.8541L138.056 25.8541C138.409 25.8541 138.679 25.9454 138.866 26.1279C139.074 26.2901 139.209 26.4827 139.271 26.7058L146.558 46.2333C146.6 46.3144 146.62 46.4057 146.62 46.507C146.62 46.6693 146.548 46.8214 146.402 46.9633C146.278 47.085 146.122 47.1458 145.935 47.1458L142.105 47.1458C141.793 47.1458 141.555 47.0748 141.389 46.9329C141.243 46.7707 141.15 46.6287 141.108 46.507L139.894 43.4046L131.579 43.4046L130.396 46.5071C130.354 46.6287 130.261 46.7707 130.115 46.9329C129.97 47.0748 129.721 47.1458 129.368 47.1458L125.538 47.1458ZM132.856 39.0246L138.648 39.0246L135.721 30.9946L132.856 39.0246Z" fill="#1B1D41"/>
<path d="M149.853 47.1458C149.625 47.1458 149.438 47.0748 149.293 46.9329C149.148 46.7909 149.075 46.6084 149.075 46.3854L149.075 26.6146C149.075 26.3915 149.148 26.209 149.293 26.0671C149.438 25.9251 149.625 25.8541 149.853 25.8541L153.154 25.8541C153.507 25.8541 153.756 25.9352 153.902 26.0975C154.068 26.2394 154.172 26.3509 154.213 26.432L161.812 38.1425L161.812 26.6145C161.812 26.3915 161.884 26.209 162.03 26.067C162.175 25.9251 162.362 25.8541 162.59 25.8541L166.327 25.8541C166.555 25.8541 166.742 25.9251 166.888 26.067C167.033 26.209 167.106 26.3915 167.106 26.6145L167.106 46.3854C167.106 46.5882 167.033 46.7707 166.888 46.9329C166.742 47.0748 166.555 47.1458 166.327 47.1458L162.995 47.1458C162.663 47.1458 162.414 47.0647 162.248 46.9025C162.102 46.7402 162.009 46.6287 161.967 46.5679L154.369 35.3137L154.369 46.3854C154.369 46.6084 154.296 46.7909 154.151 46.9329C154.006 47.0748 153.819 47.1458 153.59 47.1458L149.853 47.1458Z" fill="#1B1D41"/>
<path fill-rule="evenodd" clip-rule="evenodd" d="M26.2795 11.214C25.1976 10.4287 23.6834 10.6683 22.8974 11.7492L18.7547 17.4456C17.008 19.8474 13.6431 20.3798 11.239 18.6348C8.83486 16.8898 8.30191 13.5281 10.0486 11.1262L14.1912 5.42984C18.4707 -0.454654 26.7147 -1.75915 32.6048 2.51619C38.4892 6.78735 39.8095 15.0156 35.5259 20.9058L9.73415 56.3712C7.98744 58.7731 4.62252 59.3055 2.21839 57.5605C-0.185741 55.8154 -0.718695 52.4537 1.02801 50.0519L26.8198 14.5865C27.6016 13.5114 27.3671 12.0034 26.2795 11.214Z" fill="#1B1D41"/>
<path fill-rule="evenodd" clip-rule="evenodd" d="M29.4324 45.9292C31.8365 47.6742 32.3695 51.0359 30.6228 53.4378L18.225 70.4855C16.4783 72.8873 13.1134 73.4198 10.7093 71.6747C8.30515 69.9297 7.7722 66.568 9.51891 64.1661L21.9166 47.1184C23.6633 44.7166 27.0283 44.1842 29.4324 45.9292Z" fill="#1B1D41"/>
<path fill-rule="evenodd" clip-rule="evenodd" d="M63.3816 24.8558C65.7858 26.6008 66.3187 29.9625 64.572 32.3644L36.7404 70.6348C34.9937 73.0366 31.6288 73.569 29.2246 71.824C26.8205 70.079 26.2875 66.7173 28.0342 64.3154L55.8659 26.0451C57.6126 23.6432 60.9775 23.1108 63.3816 24.8558Z" fill="#1B1D41"/>
<path fill-rule="evenodd" clip-rule="evenodd" d="M63.0454 50.9243C65.4496 52.6693 65.9825 56.031 64.2358 58.4328L55.2538 70.7837C53.5071 73.1855 50.1421 73.718 47.738 71.973C45.3339 70.2279 44.8009 66.8662 46.5476 64.4644L55.5297 52.1135C57.2764 49.7117 60.6413 49.1792 63.0454 50.9243Z" fill="#1B1D41"/>
<path d="M5.51973 31.5452C5.16005 32.5673 6.50715 33.308 7.179 32.4575L13.5792 24.3557C14.4499 23.2535 13.8646 21.6211 12.4914 21.3221C11.3551 21.0746 10.3033 20.5276 9.4477 19.7407C8.56044 18.9247 7.11785 19.4467 6.96544 20.6418L6.93026 20.9177C6.87554 21.3469 6.85725 21.7799 6.87559 22.2121L6.88346 22.3977C7.01534 25.5058 6.55249 28.6104 5.51973 31.5452Z" fill="#FF823F"/>
</svg>
