<svg width="200" height="73" viewBox="0 0 200 73" fill="none" xmlns="http://www.w3.org/2000/svg">
<path fill-rule="evenodd" clip-rule="evenodd" d="M17.8045 7.60272C17.0716 7.07034 16.0457 7.23278 15.5131 7.96555L12.7065 11.8275C11.5231 13.4559 9.24331 13.8169 7.61449 12.6338C5.98568 11.4507 5.6246 9.17158 6.808 7.54322L9.61466 3.68125C12.514 -0.308232 18.0994 -1.19264 22.09 1.7059C26.0767 4.6016 26.9712 10.18 24.0691 14.1734L6.59495 38.2178C5.41155 39.8462 3.13179 40.2071 1.50298 39.0241C-0.125841 37.841 -0.48692 35.5619 0.696483 33.9335L18.1706 9.88914C18.7003 9.16027 18.5414 8.13794 17.8045 7.60272Z" fill="#1B1D41"/>
<path fill-rule="evenodd" clip-rule="evenodd" d="M19.9406 31.1385C21.5695 32.3215 21.9305 34.6006 20.7471 36.229L12.3476 47.7868C11.1642 49.4151 8.88443 49.7761 7.25561 48.593C5.6268 47.41 5.26572 45.1309 6.44912 43.5025L14.8487 31.9447C16.0321 30.3164 18.3118 29.9554 19.9406 31.1385Z" fill="#1B1D41"/>
<path fill-rule="evenodd" clip-rule="evenodd" d="M42.9415 16.8514C44.5703 18.0345 44.9314 20.3136 43.748 21.942L24.8919 47.888C23.7084 49.5164 21.4287 49.8773 19.7999 48.6943C18.1711 47.5112 17.81 45.2321 18.9934 43.6037L37.8495 17.6577C39.0329 16.0293 41.3127 15.6683 42.9415 16.8514Z" fill="#1B1D41"/>
<path fill-rule="evenodd" clip-rule="evenodd" d="M42.7137 34.5249C44.3425 35.708 44.7036 37.9871 43.5202 39.6155L37.4348 47.989C36.2514 49.6173 33.9716 49.9783 32.3428 48.7952C30.714 47.6122 30.3529 45.333 31.5363 43.7047L37.6217 35.3312C38.8051 33.7028 41.0849 33.3419 42.7137 34.5249Z" fill="#1B1D41"/>
<path d="M3.73966 21.3866C3.49597 22.0795 4.40863 22.5817 4.86382 22.0051L9.20003 16.5124C9.78994 15.7651 9.39333 14.6584 8.46299 14.4556C7.69316 14.2879 6.98055 13.917 6.40088 13.3835C5.79975 12.8303 4.82239 13.1842 4.71913 13.9945L4.6953 14.1815C4.65822 14.4725 4.64583 14.766 4.65826 15.0591L4.66359 15.1849C4.75294 17.2921 4.43936 19.3969 3.73966 21.3866Z" fill="#FF823F"/>
<path d="M4.77879 71.1558C3.72387 71.1558 2.84828 71.0032 2.15204 70.6982C1.45579 70.3823 0.928331 69.9737 0.569658 69.4726C0.210986 68.9714 0.0211 68.4376 1.47965e-06 67.8711C1.46445e-06 67.784 0.031649 67.7077 0.0949442 67.6423C0.168789 67.5661 0.253182 67.5279 0.348125 67.5279L2.34192 67.5279C2.48961 67.5279 2.60038 67.5552 2.67422 67.6096C2.75862 67.6641 2.83246 67.7349 2.89576 67.8221C2.98015 67.9855 3.09619 68.1435 3.24388 68.296C3.40212 68.4485 3.60255 68.5738 3.84518 68.6718C4.09836 68.759 4.40956 68.8026 4.77879 68.8026C5.39064 68.8026 5.84953 68.7045 6.15546 68.5084C6.47193 68.3123 6.63017 68.0454 6.63017 67.7077C6.63017 67.468 6.54578 67.2719 6.37699 67.1194C6.2082 66.956 5.93392 66.8144 5.55415 66.6945C5.18493 66.5638 4.68912 66.4331 4.06672 66.3023C3.26498 66.128 2.57928 65.9047 2.00962 65.6323C1.45052 65.3491 1.02327 64.9841 0.727895 64.5374C0.432518 64.0799 0.284829 63.5134 0.284829 62.8379C0.284829 62.1734 0.464165 61.5796 0.822837 61.0567C1.19206 60.5337 1.70369 60.1252 2.35774 59.8311C3.01179 59.5369 3.78716 59.3898 4.68384 59.3898C5.41174 59.3898 6.04996 59.4879 6.59852 59.684C7.15763 59.8801 7.62707 60.1415 8.00684 60.4684C8.38661 60.7952 8.67144 61.1438 8.86132 61.5142C9.06176 61.8738 9.16725 62.2278 9.1778 62.5764C9.1778 62.6636 9.14615 62.7453 9.08286 62.8216C9.01956 62.8869 8.94044 62.9196 8.8455 62.9196L6.75676 62.9196C6.64072 62.9196 6.5405 62.8978 6.45611 62.8542C6.37171 62.8107 6.29787 62.7399 6.23457 62.6418C6.17128 62.4021 6.00249 62.1951 5.72821 62.0208C5.46448 61.8356 5.11636 61.743 4.68384 61.743C4.21968 61.743 3.85573 61.8302 3.592 62.0045C3.33882 62.1679 3.21223 62.4239 3.21223 62.7725C3.21223 62.9904 3.2808 63.1811 3.41794 63.3445C3.56563 63.5079 3.80299 63.6495 4.13001 63.7694C4.46758 63.8892 4.92647 64.0145 5.50668 64.1452C6.46666 64.3304 7.24202 64.5647 7.83278 64.8479C8.42353 65.1203 8.85605 65.4798 9.13033 65.9265C9.40461 66.3622 9.54175 66.9124 9.54175 67.577C9.54175 68.3178 9.33604 68.9605 8.92462 69.5053C8.52375 70.0391 7.96464 70.4476 7.2473 70.7309C6.52995 71.0141 5.70712 71.1558 4.77879 71.1558Z" fill="#1B1D41"/>
<path d="M13.0564 70.9923C12.877 70.9923 12.7346 70.9379 12.6291 70.8289C12.5236 70.72 12.4603 70.5947 12.4392 70.4531L10.7144 60.0108C10.7039 59.989 10.6986 59.9672 10.6986 59.9454C10.6986 59.9237 10.6986 59.9073 10.6986 59.8964C10.6986 59.8093 10.7303 59.733 10.7936 59.6676C10.8674 59.5914 10.9465 59.5533 11.0309 59.5533L12.9931 59.5533C13.2884 59.5533 13.452 59.6731 13.4836 59.9128L14.5121 66.3023L15.6515 62.5274C15.6831 62.4403 15.7359 62.3477 15.8097 62.2496C15.8835 62.1407 16.0049 62.0862 16.1736 62.0862L17.313 62.0862C17.4923 62.0862 17.6189 62.1407 17.6927 62.2496C17.7666 62.3477 17.814 62.4403 17.8351 62.5274L18.9745 66.286L20.003 59.9128C20.0347 59.6731 20.1982 59.5533 20.4935 59.5533L22.4557 59.5533C22.5506 59.5533 22.6298 59.5914 22.693 59.6676C22.7563 59.733 22.788 59.8093 22.788 59.8964C22.788 59.9073 22.788 59.9237 22.788 59.9454C22.788 59.9672 22.788 59.989 22.788 60.0108L21.0632 70.4531C21.0421 70.5947 20.9788 70.72 20.8733 70.8289C20.7678 70.9379 20.6254 70.9923 20.4461 70.9923L18.9428 70.9923C18.7635 70.9923 18.6263 70.9433 18.5314 70.8453C18.4364 70.7472 18.3732 70.6546 18.3415 70.5675L16.7433 65.8938L15.1451 70.5675C15.1135 70.6546 15.0502 70.7472 14.9552 70.8453C14.8708 70.9433 14.739 70.9923 14.5596 70.9923L13.0564 70.9923Z" fill="#1B1D41"/>
<path d="M23.3225 70.9923C23.2381 70.9923 23.159 70.9597 23.0852 70.8943C23.0219 70.818 22.9902 70.7363 22.9902 70.6492C22.9902 70.5947 22.9955 70.5457 23.0061 70.5021L26.7247 60.0108C26.7563 59.891 26.8196 59.7875 26.9145 59.7003C27.02 59.6023 27.1624 59.5532 27.3418 59.5532L29.6837 59.5532C29.863 59.5532 30.0002 59.6023 30.0951 59.7003C30.2006 59.7875 30.2692 59.891 30.3008 60.0108L34.0036 70.5021C34.0247 70.5457 34.0352 70.5947 34.0352 70.6492C34.0352 70.7363 33.9983 70.818 33.9245 70.8943C33.8612 70.9597 33.7821 70.9923 33.6871 70.9923L31.7408 70.9923C31.5826 70.9923 31.4612 70.9542 31.3768 70.878C31.303 70.7908 31.2555 70.7145 31.2344 70.6492L30.6173 68.9823L26.3924 68.9823L25.791 70.6492C25.77 70.7145 25.7225 70.7908 25.6486 70.878C25.5748 70.9542 25.4482 70.9923 25.2689 70.9923L23.3225 70.9923ZM27.0411 66.6291L29.9844 66.6291L28.4969 62.315L27.0411 66.6291Z" fill="#1B1D41"/>
<path d="M35.6781 70.9923C35.562 70.9923 35.4671 70.9542 35.3932 70.8779C35.3194 70.8017 35.2825 70.7036 35.2825 70.5838L35.2825 59.9618C35.2825 59.8419 35.3194 59.7439 35.3932 59.6676C35.4671 59.5914 35.562 59.5532 35.6781 59.5532L37.3554 59.5532C37.5347 59.5532 37.6613 59.5968 37.7352 59.684C37.8196 59.7602 37.8723 59.8202 37.8934 59.8637L41.7544 66.1552L41.7544 59.9618C41.7544 59.8419 41.7913 59.7439 41.8652 59.6676C41.939 59.5914 42.034 59.5532 42.15 59.5532L44.0489 59.5532C44.1649 59.5532 44.2598 59.5914 44.3337 59.6676C44.4075 59.7439 44.4445 59.8419 44.4445 59.9618L44.4445 70.5838C44.4445 70.6927 44.4075 70.7908 44.3337 70.8779C44.2598 70.9542 44.1649 70.9923 44.0489 70.9923L42.3557 70.9923C42.1869 70.9923 42.0603 70.9488 41.9759 70.8616C41.9021 70.7745 41.8546 70.7145 41.8335 70.6818L37.9725 64.6355L37.9725 70.5838C37.9725 70.7036 37.9356 70.8017 37.8618 70.8779C37.7879 70.9542 37.693 70.9923 37.5769 70.9923L35.6781 70.9923Z" fill="#1B1D41"/>
<path d="M90.5778 12.4724C89.5753 12.4724 88.7342 12.3223 88.0543 12.022C87.3745 11.7102 86.8502 11.3118 86.4815 10.8268C86.1243 10.3302 85.9342 9.80481 85.9111 9.2505C85.9111 9.15812 85.9457 9.07728 86.0148 9.00799C86.0955 8.92716 86.1877 8.88674 86.2914 8.88674H87.1729C87.3111 8.88674 87.4148 8.92138 87.484 8.99067C87.5531 9.05996 87.5992 9.14079 87.6222 9.23318C87.6799 9.51033 87.8181 9.78748 88.0371 10.0646C88.2675 10.3302 88.5844 10.5554 88.9877 10.7402C89.4025 10.9134 89.9325 11 90.5778 11C91.5687 11 92.2947 10.8268 92.7556 10.4804C93.228 10.1224 93.4642 9.64891 93.4642 9.05996C93.4642 8.65578 93.3375 8.33243 93.084 8.08992C92.842 7.83587 92.4675 7.61068 91.9605 7.41437C91.4535 7.21805 90.7967 7.00441 89.9901 6.77345C89.149 6.53094 88.4519 6.26534 87.8988 5.97664C87.3457 5.68794 86.9309 5.32995 86.6543 4.90267C86.3893 4.47539 86.2568 3.93264 86.2568 3.2744C86.2568 2.6508 86.4239 2.0965 86.758 1.61148C87.0922 1.11492 87.5704 0.722285 88.1926 0.433584C88.8264 0.144884 89.5926 0.000534058 90.4914 0.000534058C91.2058 0.000534058 91.828 0.0986925 92.358 0.295009C92.8996 0.479777 93.349 0.733833 93.7062 1.05718C94.0634 1.36897 94.3342 1.70964 94.5185 2.07918C94.7029 2.43717 94.8008 2.78938 94.8124 3.13582C94.8124 3.21666 94.7836 3.29749 94.7259 3.37833C94.6683 3.44762 94.5762 3.48226 94.4494 3.48226H93.5334C93.4527 3.48226 93.3663 3.45917 93.2741 3.41298C93.1934 3.36678 93.1301 3.28017 93.084 3.15314C93.0148 2.67968 92.7498 2.28127 92.2889 1.95792C91.828 1.63458 91.2288 1.47291 90.4914 1.47291C89.7424 1.47291 89.1317 1.61726 88.6593 1.90596C88.1984 2.19466 87.9679 2.64503 87.9679 3.25708C87.9679 3.64971 88.0774 3.97883 88.2963 4.24443C88.5152 4.49849 88.8609 4.72368 89.3334 4.91999C89.8058 5.11631 90.4222 5.32417 91.1827 5.54359C92.1045 5.79764 92.8593 6.06902 93.4469 6.35772C94.0346 6.63487 94.4667 6.98709 94.7432 7.41437C95.0313 7.83009 95.1753 8.36708 95.1753 9.02531C95.1753 9.75284 94.9852 10.3764 94.605 10.8961C94.2247 11.4042 93.6889 11.7968 92.9976 12.074C92.3177 12.3396 91.5111 12.4724 90.5778 12.4724Z" fill="#1B1D41"/>
<path d="M100.794 12.4724C99.607 12.4724 98.6621 12.1086 97.9593 11.3811C97.2564 10.642 96.8704 9.63736 96.8012 8.36708C96.7897 8.21695 96.784 8.02641 96.784 7.79545C96.784 7.55294 96.7897 7.35662 96.8012 7.2065C96.8473 6.38659 97.0374 5.67061 97.3716 5.05857C97.7058 4.43497 98.1609 3.95573 98.737 3.62084C99.3247 3.28595 100.01 3.1185 100.794 3.1185C101.67 3.1185 102.401 3.30327 102.989 3.67281C103.588 4.04234 104.043 4.56778 104.354 5.24911C104.665 5.93044 104.821 6.72726 104.821 7.63955V7.93403C104.821 8.06105 104.781 8.15921 104.7 8.2285C104.631 8.29779 104.539 8.33243 104.423 8.33243H98.4432C98.4432 8.34398 98.4432 8.36708 98.4432 8.40172C98.4432 8.43636 98.4432 8.46524 98.4432 8.48833C98.4663 8.9618 98.57 9.4064 98.7543 9.82213C98.9387 10.2263 99.2037 10.5554 99.5494 10.8095C99.8951 11.0635 100.31 11.1906 100.794 11.1906C101.209 11.1906 101.554 11.1271 101.831 11C102.107 10.873 102.332 10.7344 102.505 10.5843C102.678 10.4226 102.793 10.3014 102.851 10.2205C102.954 10.0704 103.035 9.9838 103.093 9.9607C103.15 9.92606 103.242 9.90874 103.369 9.90874H104.199C104.314 9.90874 104.406 9.94338 104.475 10.0127C104.556 10.0704 104.591 10.157 104.579 10.2725C104.567 10.4457 104.475 10.6594 104.302 10.9134C104.13 11.1559 103.882 11.3984 103.559 11.6409C103.237 11.8835 102.845 12.0855 102.384 12.2472C101.923 12.3973 101.393 12.4724 100.794 12.4724ZM98.4432 7.13721H103.179V7.08525C103.179 6.56558 103.081 6.10366 102.885 5.69948C102.701 5.2953 102.43 4.97773 102.073 4.74677C101.716 4.50426 101.289 4.38301 100.794 4.38301C100.298 4.38301 99.872 4.50426 99.5148 4.74677C99.1691 4.97773 98.9041 5.2953 98.7198 5.69948C98.5354 6.10366 98.4432 6.56558 98.4432 7.08525V7.13721Z" fill="#1B1D41"/>
<path d="M110.517 12.4724C109.699 12.4724 108.991 12.3165 108.391 12.0047C107.804 11.6814 107.349 11.2252 107.026 10.6363C106.703 10.0358 106.53 9.31979 106.507 8.48833C106.496 8.31511 106.49 8.08415 106.49 7.79545C106.49 7.50675 106.496 7.27579 106.507 7.10257C106.53 6.27111 106.703 5.56091 107.026 4.97196C107.349 4.37146 107.804 3.91531 108.391 3.60352C108.991 3.28017 109.699 3.1185 110.517 3.1185C111.186 3.1185 111.756 3.21088 112.228 3.39565C112.712 3.58042 113.11 3.81716 113.421 4.10586C113.732 4.39456 113.963 4.70635 114.112 5.04125C114.274 5.37614 114.36 5.69371 114.372 5.99396C114.383 6.10944 114.349 6.20182 114.268 6.27111C114.187 6.3404 114.089 6.37504 113.974 6.37504H113.144C113.029 6.37504 112.943 6.35195 112.885 6.30576C112.828 6.24802 112.77 6.15563 112.712 6.0286C112.505 5.46275 112.223 5.06434 111.865 4.83338C111.508 4.60242 111.065 4.48694 110.535 4.48694C109.843 4.48694 109.279 4.70058 108.841 5.12786C108.414 5.55513 108.184 6.24224 108.149 7.18918C108.138 7.60491 108.138 8.00909 108.149 8.40172C108.184 9.36021 108.414 10.0531 108.841 10.4804C109.279 10.8961 109.843 11.104 110.535 11.104C111.065 11.104 111.508 10.9885 111.865 10.7575C112.223 10.5266 112.505 10.1282 112.712 9.5623C112.77 9.43527 112.828 9.34866 112.885 9.30247C112.943 9.24473 113.029 9.21586 113.144 9.21586H113.974C114.089 9.21586 114.187 9.2505 114.268 9.31979C114.349 9.38908 114.383 9.48146 114.372 9.59694C114.36 9.83945 114.308 10.0877 114.216 10.3418C114.124 10.5958 113.974 10.8557 113.767 11.1213C113.571 11.3753 113.323 11.6063 113.023 11.8142C112.724 12.0105 112.361 12.1722 111.935 12.2992C111.52 12.4147 111.047 12.4724 110.517 12.4724Z" fill="#1B1D41"/>
<path d="M119.777 12.4724C119.04 12.4724 118.412 12.3107 117.893 11.9874C117.386 11.6525 117 11.1906 116.735 10.6016C116.47 10.0127 116.338 9.33711 116.338 8.57494V3.69013C116.338 3.57465 116.372 3.48226 116.441 3.41298C116.522 3.33214 116.62 3.29172 116.735 3.29172H117.599C117.715 3.29172 117.807 3.33214 117.876 3.41298C117.957 3.48226 117.997 3.57465 117.997 3.69013V8.48833C117.997 10.209 118.746 11.0693 120.244 11.0693C120.958 11.0693 121.529 10.8441 121.955 10.3938C122.393 9.93183 122.612 9.29669 122.612 8.48833V3.69013C122.612 3.57465 122.646 3.48226 122.716 3.41298C122.796 3.33214 122.894 3.29172 123.009 3.29172H123.856C123.983 3.29172 124.081 3.33214 124.15 3.41298C124.219 3.48226 124.254 3.57465 124.254 3.69013V11.9008C124.254 12.0163 124.219 12.1144 124.15 12.1952C124.081 12.2645 123.983 12.2992 123.856 12.2992H123.061C122.946 12.2992 122.848 12.2645 122.767 12.1952C122.698 12.1144 122.664 12.0163 122.664 11.9008V11.1386C122.353 11.5428 121.972 11.8661 121.523 12.1086C121.085 12.3511 120.503 12.4724 119.777 12.4724Z" fill="#1B1D41"/>
<path d="M127.219 12.2992C127.104 12.2992 127.006 12.2645 126.925 12.1952C126.856 12.1144 126.822 12.0163 126.822 11.9008V3.70745C126.822 3.59197 126.856 3.49381 126.925 3.41298C127.006 3.33214 127.104 3.29172 127.219 3.29172H128.014C128.129 3.29172 128.227 3.33214 128.308 3.41298C128.389 3.49381 128.429 3.59197 128.429 3.70745V4.46962C128.659 4.07699 128.976 3.78251 129.38 3.5862C129.783 3.38988 130.267 3.29172 130.831 3.29172H131.523C131.638 3.29172 131.73 3.33214 131.799 3.41298C131.868 3.48226 131.903 3.57465 131.903 3.69013V4.40033C131.903 4.51581 131.868 4.6082 131.799 4.67748C131.73 4.74677 131.638 4.78142 131.523 4.78142H130.486C129.864 4.78142 129.374 4.96618 129.017 5.33572C128.659 5.69371 128.481 6.1845 128.481 6.80809V11.9008C128.481 12.0163 128.44 12.1144 128.36 12.1952C128.279 12.2645 128.181 12.2992 128.066 12.2992H127.219Z" fill="#1B1D41"/>
<path d="M136.796 12.4724C135.61 12.4724 134.665 12.1086 133.962 11.3811C133.259 10.642 132.873 9.63736 132.804 8.36708C132.792 8.21695 132.787 8.02641 132.787 7.79545C132.787 7.55294 132.792 7.35662 132.804 7.2065C132.85 6.38659 133.04 5.67061 133.374 5.05857C133.708 4.43497 134.164 3.95573 134.74 3.62084C135.327 3.28595 136.013 3.1185 136.796 3.1185C137.672 3.1185 138.404 3.30327 138.991 3.67281C139.591 4.04234 140.046 4.56778 140.357 5.24911C140.668 5.93044 140.824 6.72726 140.824 7.63955V7.93403C140.824 8.06105 140.783 8.15921 140.703 8.2285C140.633 8.29779 140.541 8.33243 140.426 8.33243H134.446C134.446 8.34398 134.446 8.36708 134.446 8.40172C134.446 8.43636 134.446 8.46524 134.446 8.48833C134.469 8.9618 134.573 9.4064 134.757 9.82213C134.941 10.2263 135.206 10.5554 135.552 10.8095C135.898 11.0635 136.312 11.1906 136.796 11.1906C137.211 11.1906 137.557 11.1271 137.833 11C138.11 10.873 138.335 10.7344 138.508 10.5843C138.68 10.4226 138.796 10.3014 138.853 10.2205C138.957 10.0704 139.038 9.9838 139.095 9.9607C139.153 9.92606 139.245 9.90874 139.372 9.90874H140.201C140.317 9.90874 140.409 9.94338 140.478 10.0127C140.559 10.0704 140.593 10.157 140.582 10.2725C140.57 10.4457 140.478 10.6594 140.305 10.9134C140.132 11.1559 139.884 11.3984 139.562 11.6409C139.239 11.8835 138.847 12.0855 138.387 12.2472C137.926 12.3973 137.396 12.4724 136.796 12.4724ZM134.446 7.13721H139.182V7.08525C139.182 6.56558 139.084 6.10366 138.888 5.69948C138.703 5.2953 138.433 4.97773 138.075 4.74677C137.718 4.50426 137.292 4.38301 136.796 4.38301C136.301 4.38301 135.875 4.50426 135.517 4.74677C135.172 4.97773 134.907 5.2953 134.722 5.69948C134.538 6.10366 134.446 6.56558 134.446 7.08525V7.13721Z" fill="#1B1D41"/>
<path d="M88.7284 32.0958C88.5786 32.0958 88.4576 32.0554 88.3655 31.9745C88.2848 31.8937 88.2272 31.7782 88.1926 31.6281L85.963 20.5073C85.9515 20.4612 85.9457 20.4207 85.9457 20.3861C85.9457 20.3514 85.9457 20.3284 85.9457 20.3168C85.9457 20.2244 85.9803 20.1436 86.0494 20.0743C86.1185 20.005 86.1992 19.9704 86.2914 19.9704H87.1901C87.4321 19.9704 87.5704 20.0685 87.605 20.2648L89.3679 29.203L91.2346 23.071C91.2692 22.9671 91.3268 22.8747 91.4074 22.7939C91.4996 22.7015 91.6264 22.6553 91.7877 22.6553H92.4272C92.6 22.6553 92.7268 22.7015 92.8074 22.7939C92.8881 22.8747 92.9399 22.9671 92.963 23.071L94.8469 29.203L96.5926 20.2648C96.6272 20.0685 96.7712 19.9704 97.0247 19.9704H97.9235C98.0157 19.9704 98.0963 20.005 98.1655 20.0743C98.2346 20.1436 98.2692 20.2244 98.2692 20.3168C98.2692 20.3284 98.2634 20.3514 98.2519 20.3861C98.2519 20.4207 98.2519 20.4612 98.2519 20.5073L96.0222 31.6281C95.9877 31.7782 95.9243 31.8937 95.8321 31.9745C95.7515 32.0554 95.6362 32.0958 95.4864 32.0958H94.8124C94.651 32.0958 94.5243 32.0554 94.4321 31.9745C94.3399 31.8937 94.2766 31.7898 94.242 31.6627L92.0988 25.063L89.9729 31.6627C89.9268 31.7898 89.8576 31.8937 89.7655 31.9745C89.6848 32.0554 89.5638 32.0958 89.4025 32.0958H88.7284Z" fill="#1B1D41"/>
<path d="M103.511 32.269C102.324 32.269 101.38 31.9052 100.677 31.1777C99.9739 30.4386 99.5879 29.434 99.5187 28.1637C99.5072 28.0136 99.5014 27.823 99.5014 27.5921C99.5014 27.3496 99.5072 27.1532 99.5187 27.0031C99.5648 26.1832 99.7549 25.4672 100.089 24.8552C100.423 24.2316 100.878 23.7523 101.455 23.4174C102.042 23.0826 102.728 22.9151 103.511 22.9151C104.387 22.9151 105.119 23.0999 105.706 23.4694C106.306 23.839 106.761 24.3644 107.072 25.0457C107.383 25.7271 107.538 26.5239 107.538 27.4362V27.7306C107.538 27.8577 107.498 27.9558 107.417 28.0251C107.348 28.0944 107.256 28.129 107.141 28.129H101.161C101.161 28.1406 101.161 28.1637 101.161 28.1983C101.161 28.233 101.161 28.2618 101.161 28.2849C101.184 28.7584 101.287 29.203 101.472 29.6187C101.656 30.0229 101.921 30.352 102.267 30.6061C102.613 30.8601 103.027 30.9872 103.511 30.9872C103.926 30.9872 104.272 30.9237 104.548 30.7966C104.825 30.6696 105.05 30.531 105.222 30.3809C105.395 30.2192 105.51 30.098 105.568 30.0171C105.672 29.867 105.752 29.7804 105.81 29.7573C105.868 29.7227 105.96 29.7053 106.087 29.7053H106.916C107.031 29.7053 107.124 29.74 107.193 29.8093C107.273 29.867 107.308 29.9536 107.297 30.0691C107.285 30.2423 107.193 30.456 107.02 30.71C106.847 30.9525 106.599 31.195 106.277 31.4376C105.954 31.6801 105.562 31.8822 105.101 32.0438C104.641 32.1939 104.111 32.269 103.511 32.269ZM101.161 26.9338H105.897V26.8819C105.897 26.3622 105.799 25.9003 105.603 25.4961C105.418 25.0919 105.148 24.7743 104.79 24.5434C104.433 24.3009 104.007 24.1796 103.511 24.1796C103.016 24.1796 102.59 24.3009 102.232 24.5434C101.887 24.7743 101.622 25.0919 101.437 25.4961C101.253 25.9003 101.161 26.3622 101.161 26.8819V26.9338Z" fill="#1B1D41"/>
<path d="M114.047 32.269C113.356 32.269 112.78 32.1478 112.319 31.9052C111.858 31.6512 111.489 31.3394 111.213 30.9699V31.6974C111.213 31.8129 111.172 31.911 111.092 31.9919C111.022 32.0611 110.93 32.0958 110.815 32.0958H110.02C109.905 32.0958 109.807 32.0611 109.726 31.9919C109.657 31.911 109.622 31.8129 109.622 31.6974V20.1956C109.622 20.0801 109.657 19.9877 109.726 19.9184C109.807 19.8376 109.905 19.7971 110.02 19.7971H110.85C110.976 19.7971 111.074 19.8376 111.143 19.9184C111.213 19.9877 111.247 20.0801 111.247 20.1956V24.1796C111.535 23.8216 111.904 23.5214 112.353 23.2789C112.814 23.0364 113.379 22.9151 114.047 22.9151C114.692 22.9151 115.24 23.0306 115.689 23.2615C116.15 23.481 116.524 23.787 116.813 24.1796C117.112 24.5723 117.337 25.0169 117.487 25.5134C117.636 26.01 117.717 26.5296 117.729 27.0724C117.74 27.2572 117.746 27.4304 117.746 27.5921C117.746 27.7537 117.74 27.927 117.729 28.1117C117.717 28.666 117.636 29.1915 117.487 29.688C117.337 30.1846 117.112 30.6292 116.813 31.0218C116.524 31.4029 116.15 31.7089 115.689 31.9399C115.24 32.1593 114.692 32.269 114.047 32.269ZM113.684 30.8659C114.283 30.8659 114.75 30.7389 115.084 30.4848C115.43 30.2192 115.678 29.8786 115.827 29.4628C115.977 29.0356 116.064 28.5794 116.087 28.0944C116.098 27.7595 116.098 27.4246 116.087 27.0897C116.064 26.6047 115.977 26.1543 115.827 25.7386C115.678 25.3113 115.43 24.9707 115.084 24.7166C114.75 24.451 114.283 24.3182 113.684 24.3182C113.143 24.3182 112.693 24.4452 112.336 24.6993C111.979 24.9533 111.708 25.2767 111.524 25.6693C111.351 26.0619 111.259 26.4604 111.247 26.8645C111.236 27.0493 111.23 27.2745 111.23 27.5401C111.23 27.7942 111.236 28.0136 111.247 28.1983C111.27 28.6256 111.362 29.0471 111.524 29.4628C111.696 29.867 111.956 30.2019 112.301 30.4675C112.659 30.7331 113.12 30.8659 113.684 30.8659Z" fill="#1B1D41"/>
<path d="M85.8766 51.8924C85.7844 51.8924 85.7037 51.8578 85.6346 51.7885C85.5655 51.7192 85.5309 51.6383 85.5309 51.546C85.5309 51.4882 85.5366 51.4247 85.5482 51.3554L89.8346 40.1481C89.8807 40.0326 89.9441 39.9402 90.0247 39.8709C90.1054 39.8016 90.2264 39.767 90.3877 39.767H91.563C91.7128 39.767 91.828 39.8016 91.9087 39.8709C92.0008 39.9402 92.07 40.0326 92.1161 40.1481L96.3852 51.3554C96.4083 51.4247 96.4198 51.4882 96.4198 51.546C96.4198 51.6383 96.3852 51.7192 96.3161 51.7885C96.2469 51.8578 96.1663 51.8924 96.0741 51.8924H95.1926C95.0543 51.8924 94.9506 51.8578 94.8815 51.7885C94.8239 51.7192 94.7836 51.6557 94.7605 51.5979L93.8099 49.1382H88.1408L87.1901 51.5979C87.1786 51.6557 87.1383 51.7192 87.0692 51.7885C87 51.8578 86.8963 51.8924 86.758 51.8924H85.8766ZM88.642 47.6485H93.3087L90.9753 41.4992L88.642 47.6485Z" fill="#1B1D41"/>
<path d="M101.226 52.0656C100.592 52.0656 100.045 51.9559 99.5838 51.7365C99.1229 51.5055 98.7427 51.1995 98.4431 50.8184C98.155 50.4258 97.9361 49.9812 97.7863 49.4846C97.648 48.9881 97.5674 48.4626 97.5443 47.9083C97.5328 47.7236 97.527 47.5503 97.527 47.3887C97.527 47.227 97.5328 47.0538 97.5443 46.869C97.5674 46.3262 97.648 45.8066 97.7863 45.31C97.9361 44.8135 98.155 44.3689 98.4431 43.9762C98.7427 43.5836 99.1229 43.2776 99.5838 43.0582C100.045 42.8272 100.592 42.7117 101.226 42.7117C101.906 42.7117 102.47 42.833 102.92 43.0755C103.369 43.318 103.738 43.6182 104.026 43.9762V39.9922C104.026 39.8767 104.06 39.7843 104.129 39.715C104.21 39.6342 104.308 39.5938 104.423 39.5938H105.253C105.368 39.5938 105.46 39.6342 105.529 39.715C105.61 39.7843 105.65 39.8767 105.65 39.9922V51.494C105.65 51.6095 105.61 51.7076 105.529 51.7885C105.46 51.8578 105.368 51.8924 105.253 51.8924H104.475C104.348 51.8924 104.25 51.8578 104.181 51.7885C104.112 51.7076 104.078 51.6095 104.078 51.494V50.7665C103.79 51.136 103.415 51.4478 102.954 51.7019C102.493 51.9444 101.917 52.0656 101.226 52.0656ZM101.589 50.6625C102.165 50.6625 102.626 50.5297 102.971 50.2641C103.317 49.9985 103.576 49.6636 103.749 49.2595C103.922 48.8437 104.014 48.4222 104.026 47.9949C104.037 47.8102 104.043 47.5908 104.043 47.3367C104.043 47.0711 104.037 46.8459 104.026 46.6611C104.014 46.257 103.916 45.8586 103.732 45.4659C103.559 45.0733 103.294 44.7499 102.937 44.4959C102.591 44.2418 102.142 44.1148 101.589 44.1148C101.001 44.1148 100.534 44.2476 100.189 44.5132C99.8431 44.7673 99.5953 45.1079 99.4455 45.5352C99.2957 45.9509 99.2093 46.4013 99.1863 46.8863C99.1748 47.2212 99.1748 47.5561 99.1863 47.891C99.2093 48.376 99.2957 48.8322 99.4455 49.2595C99.5953 49.6752 99.8431 50.0158 100.189 50.2814C100.534 50.5355 101.001 50.6625 101.589 50.6625Z" fill="#1B1D41"/>
<path d="M111.505 52.0656C110.871 52.0656 110.324 51.9559 109.863 51.7365C109.402 51.5055 109.022 51.1995 108.722 50.8184C108.434 50.4258 108.215 49.9812 108.066 49.4846C107.927 48.9881 107.847 48.4626 107.824 47.9083C107.812 47.7236 107.806 47.5503 107.806 47.3887C107.806 47.227 107.812 47.0538 107.824 46.869C107.847 46.3262 107.927 45.8066 108.066 45.31C108.215 44.8135 108.434 44.3689 108.722 43.9762C109.022 43.5836 109.402 43.2776 109.863 43.0582C110.324 42.8272 110.871 42.7117 111.505 42.7117C112.185 42.7117 112.749 42.833 113.199 43.0755C113.648 43.318 114.017 43.6182 114.305 43.9762V39.9922C114.305 39.8767 114.34 39.7843 114.409 39.715C114.489 39.6342 114.587 39.5938 114.703 39.5938H115.532C115.647 39.5938 115.74 39.6342 115.809 39.715C115.889 39.7843 115.93 39.8767 115.93 39.9922V51.494C115.93 51.6095 115.889 51.7076 115.809 51.7885C115.74 51.8578 115.647 51.8924 115.532 51.8924H114.754C114.628 51.8924 114.53 51.8578 114.461 51.7885C114.391 51.7076 114.357 51.6095 114.357 51.494V50.7665C114.069 51.136 113.694 51.4478 113.233 51.7019C112.773 51.9444 112.196 52.0656 111.505 52.0656ZM111.868 50.6625C112.444 50.6625 112.905 50.5297 113.251 50.2641C113.596 49.9985 113.856 49.6636 114.028 49.2595C114.201 48.8437 114.293 48.4222 114.305 47.9949C114.317 47.8102 114.322 47.5908 114.322 47.3367C114.322 47.0711 114.317 46.8459 114.305 46.6611C114.293 46.257 114.196 45.8586 114.011 45.4659C113.838 45.0733 113.573 44.7499 113.216 44.4959C112.87 44.2418 112.421 44.1148 111.868 44.1148C111.28 44.1148 110.814 44.2476 110.468 44.5132C110.122 44.7673 109.875 45.1079 109.725 45.5352C109.575 45.9509 109.489 46.4013 109.466 46.8863C109.454 47.2212 109.454 47.5561 109.466 47.891C109.489 48.376 109.575 48.8322 109.725 49.2595C109.875 49.6752 110.122 50.0158 110.468 50.2814C110.814 50.5355 111.28 50.6625 111.868 50.6625Z" fill="#1B1D41"/>
<path d="M118.898 51.8924C118.783 51.8924 118.685 51.8578 118.604 51.7885C118.535 51.7076 118.5 51.6095 118.5 51.494V43.3007C118.5 43.1852 118.535 43.087 118.604 43.0062C118.685 42.9254 118.783 42.8849 118.898 42.8849H119.693C119.808 42.8849 119.906 42.9254 119.987 43.0062C120.067 43.087 120.108 43.1852 120.108 43.3007V44.0628C120.338 43.6702 120.655 43.3757 121.058 43.1794C121.462 42.9831 121.946 42.8849 122.51 42.8849H123.202C123.317 42.8849 123.409 42.9254 123.478 43.0062C123.547 43.0755 123.582 43.1679 123.582 43.2833V43.9936C123.582 44.109 123.547 44.2014 123.478 44.2707C123.409 44.34 123.317 44.3746 123.202 44.3746H122.164C121.542 44.3746 121.053 44.5594 120.695 44.9289C120.338 45.2869 120.16 45.7777 120.16 46.4013V51.494C120.16 51.6095 120.119 51.7076 120.039 51.7885C119.958 51.8578 119.86 51.8924 119.745 51.8924H118.898Z" fill="#1B1D41"/>
<path d="M128.475 52.0656C127.288 52.0656 126.343 51.7019 125.641 50.9743C124.938 50.2353 124.552 49.2306 124.483 47.9603C124.471 47.8102 124.465 47.6196 124.465 47.3887C124.465 47.1462 124.471 46.9498 124.483 46.7997C124.529 45.9798 124.719 45.2638 125.053 44.6518C125.387 44.0282 125.842 43.549 126.418 43.2141C127.006 42.8792 127.692 42.7117 128.475 42.7117C129.351 42.7117 130.083 42.8965 130.67 43.266C131.269 43.6356 131.725 44.161 132.036 44.8423C132.347 45.5237 132.502 46.3205 132.502 47.2328V47.5272C132.502 47.6543 132.462 47.7524 132.381 47.8217C132.312 47.891 132.22 47.9257 132.105 47.9257H126.125C126.125 47.9372 126.125 47.9603 126.125 47.9949C126.125 48.0296 126.125 48.0585 126.125 48.0816C126.148 48.555 126.251 48.9996 126.436 49.4154C126.62 49.8195 126.885 50.1486 127.231 50.4027C127.576 50.6568 127.991 50.7838 128.475 50.7838C128.89 50.7838 129.236 50.7203 129.512 50.5932C129.789 50.4662 130.013 50.3276 130.186 50.1775C130.359 50.0158 130.474 49.8946 130.532 49.8138C130.636 49.6636 130.716 49.577 130.774 49.5539C130.832 49.5193 130.924 49.502 131.05 49.502H131.88C131.995 49.502 132.088 49.5366 132.157 49.6059C132.237 49.6636 132.272 49.7502 132.26 49.8657C132.249 50.0389 132.157 50.2526 131.984 50.5066C131.811 50.7491 131.563 50.9916 131.241 51.2342C130.918 51.4767 130.526 51.6788 130.065 51.8404C129.604 51.9906 129.074 52.0656 128.475 52.0656ZM126.125 46.7304H130.86V46.6785C130.86 46.1588 130.762 45.6969 130.567 45.2927C130.382 44.8885 130.111 44.5709 129.754 44.34C129.397 44.0975 128.971 43.9762 128.475 43.9762C127.98 43.9762 127.553 44.0975 127.196 44.34C126.85 44.5709 126.585 44.8885 126.401 45.2927C126.217 45.6969 126.125 46.1588 126.125 46.6785V46.7304Z" fill="#1B1D41"/>
<path d="M137.68 52.0656C137.035 52.0656 136.482 51.9848 136.021 51.8231C135.56 51.6614 135.185 51.4651 134.897 51.2342C134.609 51.0032 134.39 50.7722 134.241 50.5413C134.102 50.3103 134.027 50.1256 134.016 49.987C134.004 49.8599 134.045 49.7618 134.137 49.6925C134.229 49.6232 134.321 49.5886 134.413 49.5886H135.174C135.243 49.5886 135.295 49.6001 135.329 49.6232C135.376 49.6348 135.433 49.681 135.502 49.7618C135.652 49.9235 135.819 50.0851 136.004 50.2468C136.188 50.4085 136.413 50.5413 136.678 50.6452C136.954 50.7491 137.294 50.8011 137.697 50.8011C138.285 50.8011 138.769 50.6914 139.149 50.472C139.529 50.241 139.72 49.9061 139.72 49.4673C139.72 49.1786 139.639 48.9476 139.478 48.7744C139.328 48.6012 139.051 48.4453 138.648 48.3067C138.256 48.1682 137.715 48.0238 137.023 47.8737C136.332 47.712 135.785 47.5157 135.381 47.2847C134.978 47.0422 134.69 46.7593 134.517 46.436C134.344 46.1011 134.258 45.7258 134.258 45.31C134.258 44.8828 134.385 44.4728 134.638 44.0802C134.892 43.676 135.26 43.3469 135.744 43.0928C136.24 42.8388 136.856 42.7117 137.594 42.7117C138.193 42.7117 138.706 42.7868 139.132 42.9369C139.558 43.087 139.91 43.2776 140.186 43.5085C140.463 43.7279 140.67 43.9474 140.808 44.1668C140.947 44.3862 141.022 44.5709 141.033 44.7211C141.045 44.8366 141.01 44.9347 140.929 45.0156C140.849 45.0848 140.757 45.1195 140.653 45.1195H139.927C139.846 45.1195 139.777 45.1022 139.72 45.0675C139.673 45.0329 139.627 44.9925 139.581 44.9463C139.466 44.7961 139.328 44.646 139.166 44.4959C139.017 44.3458 138.815 44.2245 138.562 44.1321C138.32 44.0282 137.997 43.9762 137.594 43.9762C137.018 43.9762 136.585 44.0975 136.297 44.34C136.009 44.5825 135.865 44.8885 135.865 45.2581C135.865 45.4775 135.929 45.6738 136.055 45.847C136.182 46.0202 136.424 46.1761 136.781 46.3147C137.139 46.4533 137.669 46.6034 138.371 46.7651C139.132 46.9152 139.731 47.1173 140.169 47.3714C140.607 47.6254 140.918 47.9199 141.102 48.2548C141.287 48.5897 141.379 48.9765 141.379 49.4154C141.379 49.9004 141.235 50.345 140.947 50.7491C140.67 51.1533 140.255 51.4767 139.702 51.7192C139.161 51.9501 138.487 52.0656 137.68 52.0656Z" fill="#1B1D41"/>
<path d="M146.491 52.0656C145.846 52.0656 145.292 51.9848 144.832 51.8231C144.371 51.6614 143.996 51.4651 143.708 51.2342C143.42 51.0032 143.201 50.7722 143.051 50.5413C142.913 50.3103 142.838 50.1256 142.827 49.987C142.815 49.8599 142.855 49.7618 142.948 49.6925C143.04 49.6232 143.132 49.5886 143.224 49.5886H143.985C144.054 49.5886 144.106 49.6001 144.14 49.6232C144.186 49.6348 144.244 49.681 144.313 49.7618C144.463 49.9235 144.63 50.0851 144.814 50.2468C144.999 50.4085 145.223 50.5413 145.488 50.6452C145.765 50.7491 146.105 50.8011 146.508 50.8011C147.096 50.8011 147.58 50.6914 147.96 50.472C148.34 50.241 148.53 49.9061 148.53 49.4673C148.53 49.1786 148.45 48.9476 148.288 48.7744C148.139 48.6012 147.862 48.4453 147.459 48.3067C147.067 48.1682 146.525 48.0238 145.834 47.8737C145.143 47.712 144.595 47.5157 144.192 47.2847C143.789 47.0422 143.501 46.7593 143.328 46.436C143.155 46.1011 143.069 45.7258 143.069 45.31C143.069 44.8828 143.195 44.4728 143.449 44.0802C143.702 43.676 144.071 43.3469 144.555 43.0928C145.051 42.8388 145.667 42.7117 146.404 42.7117C147.004 42.7117 147.516 42.7868 147.943 42.9369C148.369 43.087 148.72 43.2776 148.997 43.5085C149.274 43.7279 149.481 43.9474 149.619 44.1668C149.758 44.3862 149.832 44.5709 149.844 44.7211C149.855 44.8366 149.821 44.9347 149.74 45.0156C149.66 45.0848 149.567 45.1195 149.464 45.1195H148.738C148.657 45.1195 148.588 45.1022 148.53 45.0675C148.484 45.0329 148.438 44.9925 148.392 44.9463C148.277 44.7961 148.139 44.646 147.977 44.4959C147.827 44.3458 147.626 44.2245 147.372 44.1321C147.13 44.0282 146.808 43.9762 146.404 43.9762C145.828 43.9762 145.396 44.0975 145.108 44.34C144.82 44.5825 144.676 44.8885 144.676 45.2581C144.676 45.4775 144.739 45.6738 144.866 45.847C144.993 46.0202 145.235 46.1761 145.592 46.3147C145.949 46.4533 146.479 46.6034 147.182 46.7651C147.943 46.9152 148.542 47.1173 148.98 47.3714C149.418 47.6254 149.729 47.9199 149.913 48.2548C150.097 48.5897 150.19 48.9765 150.19 49.4154C150.19 49.9004 150.046 50.345 149.758 50.7491C149.481 51.1533 149.066 51.4767 148.513 51.7192C147.971 51.9501 147.297 52.0656 146.491 52.0656Z" fill="#1B1D41"/>
<path d="M154.697 52.0656C154.121 52.0656 153.596 51.9501 153.124 51.7192C152.651 51.4882 152.271 51.1764 151.983 50.7838C151.695 50.3912 151.551 49.9466 151.551 49.45C151.551 48.6532 151.874 48.018 152.519 47.5446C153.164 47.0711 154.005 46.7593 155.042 46.6092L157.618 46.2454V45.7431C157.618 45.1888 157.456 44.7557 157.134 44.4439C156.823 44.1321 156.31 43.9762 155.595 43.9762C155.077 43.9762 154.656 44.0802 154.334 44.288C154.023 44.4959 153.804 44.7615 153.677 45.0848C153.608 45.2581 153.487 45.3447 153.314 45.3447H152.536C152.409 45.3447 152.311 45.31 152.242 45.2407C152.185 45.1599 152.156 45.0675 152.156 44.9636C152.156 44.7904 152.219 44.5767 152.346 44.3227C152.484 44.0686 152.692 43.8203 152.968 43.5778C153.245 43.3353 153.596 43.1332 154.023 42.9716C154.46 42.7983 154.99 42.7117 155.613 42.7117C156.304 42.7117 156.886 42.8041 157.358 42.9889C157.831 43.1621 158.2 43.3988 158.465 43.6991C158.741 43.9993 158.937 44.34 159.052 44.7211C159.179 45.1022 159.242 45.489 159.242 45.8817V51.494C159.242 51.6095 159.202 51.7076 159.121 51.7885C159.052 51.8578 158.96 51.8924 158.845 51.8924H158.05C157.923 51.8924 157.825 51.8578 157.756 51.7885C157.687 51.7076 157.652 51.6095 157.652 51.494V50.7491C157.502 50.957 157.301 51.1649 157.047 51.3727C156.794 51.5691 156.477 51.7365 156.097 51.8751C155.716 52.0021 155.25 52.0656 154.697 52.0656ZM155.06 50.7665C155.532 50.7665 155.964 50.6683 156.356 50.472C156.748 50.2641 157.053 49.9466 157.272 49.5193C157.502 49.092 157.618 48.555 157.618 47.9083V47.4233L155.613 47.7178C154.795 47.8333 154.178 48.0296 153.763 48.3067C153.349 48.5723 153.141 48.913 153.141 49.3287C153.141 49.6521 153.233 49.9235 153.418 50.1429C153.614 50.3507 153.856 50.5066 154.144 50.6106C154.443 50.7145 154.749 50.7665 155.06 50.7665Z" fill="#1B1D41"/>
<path d="M166.169 52.0656C165.478 52.0656 164.902 51.9444 164.441 51.7019C163.98 51.4478 163.611 51.136 163.334 50.7665V51.494C163.334 51.6095 163.294 51.7076 163.213 51.7885C163.144 51.8578 163.052 51.8924 162.937 51.8924H162.142C162.027 51.8924 161.929 51.8578 161.848 51.7885C161.779 51.7076 161.744 51.6095 161.744 51.494V39.9922C161.744 39.8767 161.779 39.7843 161.848 39.715C161.929 39.6342 162.027 39.5938 162.142 39.5938H162.971C163.098 39.5938 163.196 39.6342 163.265 39.715C163.334 39.7843 163.369 39.8767 163.369 39.9922V43.9762C163.657 43.6182 164.026 43.318 164.475 43.0755C164.936 42.833 165.501 42.7117 166.169 42.7117C166.814 42.7117 167.362 42.8272 167.811 43.0582C168.272 43.2776 168.646 43.5836 168.934 43.9762C169.234 44.3689 169.459 44.8135 169.609 45.31C169.758 45.8066 169.839 46.3262 169.85 46.869C169.862 47.0538 169.868 47.227 169.868 47.3887C169.868 47.5503 169.862 47.7236 169.85 47.9083C169.839 48.4626 169.758 48.9881 169.609 49.4846C169.459 49.9812 169.234 50.4258 168.934 50.8184C168.646 51.1995 168.272 51.5055 167.811 51.7365C167.362 51.9559 166.814 52.0656 166.169 52.0656ZM165.806 50.6625C166.405 50.6625 166.872 50.5355 167.206 50.2814C167.552 50.0158 167.799 49.6752 167.949 49.2595C168.099 48.8322 168.185 48.376 168.209 47.891C168.22 47.5561 168.22 47.2212 168.209 46.8863C168.185 46.4013 168.099 45.9509 167.949 45.5352C167.799 45.1079 167.552 44.7673 167.206 44.5132C166.872 44.2476 166.405 44.1148 165.806 44.1148C165.264 44.1148 164.815 44.2418 164.458 44.4959C164.101 44.7499 163.83 45.0733 163.646 45.4659C163.473 45.8586 163.381 46.257 163.369 46.6611C163.357 46.8459 163.352 47.0711 163.352 47.3367C163.352 47.5908 163.357 47.8102 163.369 47.9949C163.392 48.4222 163.484 48.8437 163.646 49.2595C163.818 49.6636 164.078 49.9985 164.423 50.2641C164.781 50.5297 165.241 50.6625 165.806 50.6625Z" fill="#1B1D41"/>
<path d="M172.404 51.8924C172.289 51.8924 172.191 51.8578 172.11 51.7885C172.041 51.7076 172.006 51.6095 172.006 51.494V43.2833C172.006 43.1679 172.041 43.0755 172.11 43.0062C172.191 42.9254 172.289 42.8849 172.404 42.8849H173.233C173.349 42.8849 173.441 42.9254 173.51 43.0062C173.579 43.0755 173.614 43.1679 173.614 43.2833V51.494C173.614 51.6095 173.579 51.7076 173.51 51.7885C173.441 51.8578 173.349 51.8924 173.233 51.8924H172.404ZM172.266 41.2047C172.15 41.2047 172.052 41.1701 171.972 41.1008C171.903 41.0199 171.868 40.9218 171.868 40.8063V39.8709C171.868 39.7554 171.903 39.663 171.972 39.5938C172.052 39.5129 172.15 39.4725 172.266 39.4725H173.354C173.47 39.4725 173.562 39.5129 173.631 39.5938C173.712 39.663 173.752 39.7554 173.752 39.8709V40.8063C173.752 40.9218 173.712 41.0199 173.631 41.1008C173.562 41.1701 173.47 41.2047 173.354 41.2047H172.266Z" fill="#1B1D41"/>
<path d="M176.607 51.8924C176.492 51.8924 176.394 51.8578 176.313 51.7885C176.244 51.7076 176.21 51.6095 176.21 51.494V39.9922C176.21 39.8767 176.244 39.7843 176.313 39.715C176.394 39.6342 176.492 39.5938 176.607 39.5938H177.419C177.546 39.5938 177.644 39.6342 177.713 39.715C177.782 39.7843 177.817 39.8767 177.817 39.9922V51.494C177.817 51.6095 177.782 51.7076 177.713 51.7885C177.644 51.8578 177.546 51.8924 177.419 51.8924H176.607Z" fill="#1B1D41"/>
<path d="M180.961 51.8924C180.846 51.8924 180.748 51.8578 180.668 51.7885C180.598 51.7076 180.564 51.6095 180.564 51.494V43.2833C180.564 43.1679 180.598 43.0755 180.668 43.0062C180.748 42.9254 180.846 42.8849 180.961 42.8849H181.791C181.906 42.8849 181.998 42.9254 182.068 43.0062C182.137 43.0755 182.171 43.1679 182.171 43.2833V51.494C182.171 51.6095 182.137 51.7076 182.068 51.7885C181.998 51.8578 181.906 51.8924 181.791 51.8924H180.961ZM180.823 41.2047C180.708 41.2047 180.61 41.1701 180.529 41.1008C180.46 41.0199 180.426 40.9218 180.426 40.8063V39.8709C180.426 39.7554 180.46 39.663 180.529 39.5938C180.61 39.5129 180.708 39.4725 180.823 39.4725H181.912C182.027 39.4725 182.119 39.5129 182.189 39.5938C182.269 39.663 182.31 39.7554 182.31 39.8709V40.8063C182.31 40.9218 182.269 41.0199 182.189 41.1008C182.119 41.1701 182.027 41.2047 181.912 41.2047H180.823Z" fill="#1B1D41"/>
<path d="M188.258 51.8924C187.613 51.8924 187.089 51.7711 186.686 51.5286C186.282 51.2746 185.988 50.9224 185.804 50.472C185.62 50.0101 185.528 49.4673 185.528 48.8437V44.2707H184.179C184.064 44.2707 183.966 44.2361 183.886 44.1668C183.816 44.0859 183.782 43.9878 183.782 43.8723V43.2833C183.782 43.1679 183.816 43.0755 183.886 43.0062C183.966 42.9254 184.064 42.8849 184.179 42.8849H185.528V39.9922C185.528 39.8767 185.562 39.7843 185.631 39.715C185.712 39.6342 185.81 39.5938 185.925 39.5938H186.737C186.853 39.5938 186.945 39.6342 187.014 39.715C187.095 39.7843 187.135 39.8767 187.135 39.9922V42.8849H189.278C189.393 42.8849 189.486 42.9254 189.555 43.0062C189.635 43.0755 189.676 43.1679 189.676 43.2833V43.8723C189.676 43.9878 189.635 44.0859 189.555 44.1668C189.486 44.2361 189.393 44.2707 189.278 44.2707H187.135V48.7225C187.135 49.2652 187.227 49.6925 187.412 50.0043C187.596 50.3161 187.924 50.472 188.397 50.472H189.451C189.566 50.472 189.658 50.5124 189.728 50.5932C189.808 50.6625 189.849 50.7549 189.849 50.8704V51.494C189.849 51.6095 189.808 51.7076 189.728 51.7885C189.658 51.8578 189.566 51.8924 189.451 51.8924H188.258Z" fill="#1B1D41"/>
<path d="M193.074 55.1836C192.982 55.1836 192.901 55.1489 192.832 55.0797C192.763 55.0104 192.729 54.9295 192.729 54.8371C192.729 54.791 192.734 54.7448 192.746 54.6986C192.757 54.6524 192.78 54.5946 192.815 54.5253L194.146 51.3554L190.845 43.5432C190.787 43.4046 190.758 43.3064 190.758 43.2487C190.758 43.1448 190.793 43.0582 190.862 42.9889C190.931 42.9196 191.017 42.8849 191.121 42.8849H191.968C192.083 42.8849 192.175 42.9138 192.245 42.9716C192.314 43.0293 192.36 43.0986 192.383 43.1794L195.01 49.4846L197.706 43.1794C197.741 43.0986 197.787 43.0293 197.845 42.9716C197.914 42.9138 198.012 42.8849 198.138 42.8849H198.951C199.054 42.8849 199.141 42.9196 199.21 42.9889C199.279 43.0582 199.314 43.139 199.314 43.2314C199.314 43.2891 199.285 43.3931 199.227 43.5432L194.319 54.8891C194.284 54.9699 194.232 55.0392 194.163 55.097C194.105 55.1547 194.013 55.1836 193.887 55.1836H193.074Z" fill="#1B1D41"/>
<path d="M87.0864 71.689C86.9597 71.689 86.8617 71.6544 86.7926 71.5851C86.7235 71.5042 86.6889 71.4061 86.6889 71.2906V59.9793C86.6889 59.8523 86.7235 59.7541 86.7926 59.6848C86.8617 59.604 86.9597 59.5636 87.0864 59.5636H87.8815C88.0198 59.5636 88.1235 59.5982 88.1926 59.6675C88.2617 59.7253 88.3021 59.7714 88.3136 59.8061L94.0519 68.6403V59.9793C94.0519 59.8523 94.0864 59.7541 94.1556 59.6848C94.2247 59.604 94.3227 59.5636 94.4494 59.5636H95.279C95.4058 59.5636 95.5037 59.604 95.5729 59.6848C95.6535 59.7541 95.6938 59.8523 95.6938 59.9793V71.2733C95.6938 71.3888 95.6535 71.4869 95.5729 71.5678C95.5037 71.6486 95.4115 71.689 95.2963 71.689H94.4667C94.3399 71.689 94.242 71.6544 94.1729 71.5851C94.1152 71.5158 94.0749 71.4696 94.0519 71.4465L88.3309 62.6989V71.2906C88.3309 71.4061 88.2906 71.5042 88.2099 71.5851C88.1408 71.6544 88.0428 71.689 87.9161 71.689H87.0864Z" fill="#1B1D41"/>
<path d="M102.043 71.8622C100.856 71.8622 99.9112 71.4985 99.2083 70.7709C98.5054 70.0319 98.1194 69.0272 98.0503 67.7569C98.0387 67.6068 98.033 67.4162 98.033 67.1853C98.033 66.9428 98.0387 66.7465 98.0503 66.5963C98.0964 65.7764 98.2865 65.0604 98.6206 64.4484C98.9548 63.8248 99.4099 63.3456 99.9861 63.0107C100.574 62.6758 101.259 62.5083 102.043 62.5083C102.919 62.5083 103.65 62.6931 104.238 63.0626C104.837 63.4322 105.292 63.9576 105.603 64.6389C105.914 65.3203 106.07 66.1171 106.07 67.0294V67.3239C106.07 67.4509 106.03 67.549 105.949 67.6183C105.88 67.6876 105.788 67.7223 105.672 67.7223H99.6922C99.6922 67.7338 99.6922 67.7569 99.6922 67.7916C99.6922 67.8262 99.6922 67.8551 99.6922 67.8782C99.7153 68.3516 99.819 68.7962 100.003 69.212C100.188 69.6161 100.453 69.9453 100.798 70.1993C101.144 70.4534 101.559 70.5804 102.043 70.5804C102.458 70.5804 102.803 70.5169 103.08 70.3899C103.356 70.2628 103.581 70.1243 103.754 69.9741C103.927 69.8125 104.042 69.6912 104.1 69.6104C104.203 69.4602 104.284 69.3736 104.342 69.3505C104.399 69.3159 104.491 69.2986 104.618 69.2986H105.448C105.563 69.2986 105.655 69.3332 105.724 69.4025C105.805 69.4602 105.84 69.5469 105.828 69.6623C105.817 69.8356 105.724 70.0492 105.552 70.3032C105.379 70.5458 105.131 70.7883 104.808 71.0308C104.486 71.2733 104.094 71.4754 103.633 71.637C103.172 71.7872 102.642 71.8622 102.043 71.8622ZM99.6922 66.527H104.428V66.4751C104.428 65.9554 104.33 65.4935 104.134 65.0893C103.95 64.6851 103.679 64.3676 103.322 64.1366C102.965 63.8941 102.538 63.7728 102.043 63.7728C101.547 63.7728 101.121 63.8941 100.764 64.1366C100.418 64.3676 100.153 64.6851 99.9688 65.0893C99.7844 65.4935 99.6922 65.9554 99.6922 66.4751V66.527Z" fill="#1B1D41"/>
<path d="M111.595 71.689C110.949 71.689 110.425 71.5678 110.022 71.3252C109.619 71.0712 109.325 70.719 109.14 70.2686C108.956 69.8067 108.864 69.2639 108.864 68.6403V64.0673H107.516C107.4 64.0673 107.302 64.0327 107.222 63.9634C107.153 63.8825 107.118 63.7844 107.118 63.6689V63.08C107.118 62.9645 107.153 62.8721 107.222 62.8028C107.302 62.722 107.4 62.6816 107.516 62.6816H108.864V59.7888C108.864 59.6733 108.898 59.5809 108.968 59.5116C109.048 59.4308 109.146 59.3904 109.261 59.3904H110.074C110.189 59.3904 110.281 59.4308 110.35 59.5116C110.431 59.5809 110.471 59.6733 110.471 59.7888V62.6816H112.614C112.73 62.6816 112.822 62.722 112.891 62.8028C112.972 62.8721 113.012 62.9645 113.012 63.08V63.6689C113.012 63.7844 112.972 63.8825 112.891 63.9634C112.822 64.0327 112.73 64.0673 112.614 64.0673H110.471V68.5191C110.471 69.0618 110.563 69.4891 110.748 69.8009C110.932 70.1127 111.261 70.2686 111.733 70.2686H112.787C112.902 70.2686 112.995 70.309 113.064 70.3899C113.144 70.4591 113.185 70.5515 113.185 70.667V71.2906C113.185 71.4061 113.144 71.5042 113.064 71.5851C112.995 71.6544 112.902 71.689 112.787 71.689H111.595Z" fill="#1B1D41"/>
<path d="M117.223 71.689C117.073 71.689 116.958 71.6544 116.877 71.5851C116.796 71.5042 116.727 71.3945 116.67 71.256L114.215 63.2185C114.192 63.1608 114.181 63.1031 114.181 63.0453C114.181 62.9414 114.215 62.8548 114.284 62.7855C114.365 62.7162 114.452 62.6816 114.544 62.6816H115.304C115.431 62.6816 115.529 62.7162 115.598 62.7855C115.667 62.8548 115.713 62.9183 115.736 62.976L117.655 69.5064L119.712 63.0453C119.735 62.9645 119.781 62.8836 119.85 62.8028C119.931 62.722 120.046 62.6816 120.196 62.6816H120.783C120.933 62.6816 121.048 62.722 121.129 62.8028C121.21 62.8836 121.256 62.9645 121.267 63.0453L123.324 69.5064L125.243 62.976C125.254 62.9183 125.294 62.8548 125.364 62.7855C125.433 62.7162 125.531 62.6816 125.657 62.6816H126.418C126.522 62.6816 126.608 62.7162 126.677 62.7855C126.746 62.8548 126.781 62.9414 126.781 63.0453C126.781 63.1031 126.769 63.1608 126.746 63.2185L124.292 71.256C124.257 71.3945 124.194 71.5042 124.102 71.5851C124.021 71.6544 123.9 71.689 123.739 71.689H123.065C122.915 71.689 122.788 71.6544 122.684 71.5851C122.592 71.5042 122.529 71.3945 122.494 71.256L120.489 65.0547L118.484 71.256C118.438 71.3945 118.369 71.5042 118.277 71.5851C118.185 71.6544 118.058 71.689 117.897 71.689H117.223Z" fill="#1B1D41"/>
<path d="M132.14 71.8622C131.265 71.8622 130.533 71.6948 129.945 71.3599C129.358 71.025 128.908 70.5631 128.597 69.9741C128.286 69.3736 128.113 68.6923 128.079 67.9301C128.067 67.7338 128.061 67.4855 128.061 67.1853C128.061 66.8735 128.067 66.6252 128.079 66.4404C128.113 65.6667 128.286 64.9854 128.597 64.3964C128.92 63.8075 129.375 63.3456 129.963 63.0107C130.55 62.6758 131.276 62.5083 132.14 62.5083C133.004 62.5083 133.73 62.6758 134.318 63.0107C134.906 63.3456 135.355 63.8075 135.666 64.3964C135.989 64.9854 136.167 65.6667 136.202 66.4404C136.214 66.6252 136.219 66.8735 136.219 67.1853C136.219 67.4855 136.214 67.7338 136.202 67.9301C136.167 68.6923 135.995 69.3736 135.684 69.9741C135.372 70.5631 134.923 71.025 134.335 71.3599C133.748 71.6948 133.016 71.8622 132.14 71.8622ZM132.14 70.5284C132.855 70.5284 133.425 70.3032 133.851 69.8529C134.278 69.391 134.508 68.7212 134.543 67.8435C134.554 67.6703 134.56 67.4509 134.56 67.1853C134.56 66.9197 134.554 66.7003 134.543 66.527C134.508 65.6494 134.278 64.9854 133.851 64.535C133.425 64.0731 132.855 63.8421 132.14 63.8421C131.426 63.8421 130.85 64.0731 130.412 64.535C129.986 64.9854 129.761 65.6494 129.738 66.527C129.726 66.7003 129.721 66.9197 129.721 67.1853C129.721 67.4509 129.726 67.6703 129.738 67.8435C129.761 68.7212 129.986 69.391 130.412 69.8529C130.85 70.3032 131.426 70.5284 132.14 70.5284Z" fill="#1B1D41"/>
<path d="M138.781 71.689C138.666 71.689 138.568 71.6544 138.487 71.5851C138.418 71.5042 138.384 71.4061 138.384 71.2906V63.0973C138.384 62.9818 138.418 62.8836 138.487 62.8028C138.568 62.722 138.666 62.6816 138.781 62.6816H139.576C139.691 62.6816 139.789 62.722 139.87 62.8028C139.951 62.8836 139.991 62.9818 139.991 63.0973V63.8594C140.221 63.4668 140.538 63.1723 140.942 62.976C141.345 62.7797 141.829 62.6816 142.393 62.6816H143.085C143.2 62.6816 143.292 62.722 143.361 62.8028C143.43 62.8721 143.465 62.9645 143.465 63.08V63.7902C143.465 63.9056 143.43 63.998 143.361 64.0673C143.292 64.1366 143.2 64.1712 143.085 64.1712H142.048C141.426 64.1712 140.936 64.356 140.579 64.7256C140.221 65.0835 140.043 65.5743 140.043 66.1979V71.2906C140.043 71.4061 140.003 71.5042 139.922 71.5851C139.841 71.6544 139.743 71.689 139.628 71.689H138.781Z" fill="#1B1D41"/>
<path d="M145.364 71.689C145.249 71.689 145.151 71.6544 145.07 71.5851C145.001 71.5042 144.967 71.4061 144.967 71.2906V59.7888C144.967 59.6733 145.001 59.5809 145.07 59.5116C145.151 59.4308 145.249 59.3904 145.364 59.3904H146.177C146.292 59.3904 146.384 59.4308 146.453 59.5116C146.534 59.5809 146.574 59.6733 146.574 59.7888V65.8168L149.979 62.976C150.117 62.8605 150.221 62.7855 150.29 62.7508C150.371 62.7047 150.498 62.6816 150.67 62.6816H151.586C151.69 62.6816 151.777 62.7162 151.846 62.7855C151.915 62.8548 151.949 62.9414 151.949 63.0453C151.949 63.0915 151.932 63.1435 151.898 63.2012C151.875 63.259 151.823 63.3167 151.742 63.3744L147.749 66.7003L152.174 71.0134C152.312 71.1289 152.382 71.2329 152.382 71.3252C152.382 71.4292 152.347 71.5158 152.278 71.5851C152.209 71.6544 152.122 71.689 152.019 71.689H151.12C150.947 71.689 150.82 71.6717 150.74 71.637C150.659 71.5909 150.555 71.51 150.428 71.3945L146.574 67.7049V71.2906C146.574 71.4061 146.534 71.5042 146.453 71.5851C146.384 71.6544 146.292 71.689 146.177 71.689H145.364Z" fill="#1B1D41"/>
<rect x="64.1975" width="2.46915" height="71.7627" rx="1.23457" fill="#E3E4F2"/>
</svg>
