<svg width="66" height="73" viewBox="0 0 66 73" fill="none" xmlns="http://www.w3.org/2000/svg">
<path fill-rule="evenodd" clip-rule="evenodd" d="M26.4397 11.214C25.3513 10.4287 23.8278 10.6683 23.037 11.7492L18.8691 17.4456C17.1117 19.8474 13.7263 20.3798 11.3075 18.6348C8.88873 16.8898 8.35253 13.5281 10.1099 11.1262L14.2778 5.42984C18.5833 -0.454654 26.8776 -1.75915 32.8037 2.51619C38.7239 6.78735 40.0523 15.0156 35.7425 20.9058L9.7935 56.3712C8.03614 58.7731 4.65071 59.3055 2.23192 57.5605C-0.186874 55.8154 -0.723077 52.4537 1.03428 50.0519L26.9833 14.5865C27.7699 13.5114 27.5339 12.0034 26.4397 11.214Z" fill="#1B1D41"/>
<path fill-rule="evenodd" clip-rule="evenodd" d="M29.6119 45.9292C32.0306 47.6743 32.5668 51.036 30.8095 53.4378L18.3362 70.4855C16.5788 72.8873 13.1934 73.4198 10.7746 71.6747C8.35579 69.9297 7.81959 66.568 9.57695 64.1662L22.0503 47.1185C23.8076 44.7166 27.1931 44.1842 29.6119 45.9292Z" fill="#1B1D41"/>
<path fill-rule="evenodd" clip-rule="evenodd" d="M63.7681 24.8558C66.1869 26.6009 66.7231 29.9626 64.9657 32.3644L36.9644 70.6348C35.207 73.0366 31.8216 73.5691 29.4028 71.824C26.984 70.079 26.4478 66.7173 28.2052 64.3155L56.2065 26.0451C57.9639 23.6432 61.3493 23.1108 63.7681 24.8558Z" fill="#1B1D41"/>
<path fill-rule="evenodd" clip-rule="evenodd" d="M63.4298 50.9243C65.8486 52.6693 66.3848 56.031 64.6275 58.4329L55.5907 70.7837C53.8333 73.1856 50.4479 73.718 48.0291 71.973C45.6103 70.228 45.0741 66.8662 46.8315 64.4644L55.8682 52.1135C57.6256 49.7117 61.011 49.1792 63.4298 50.9243Z" fill="#1B1D41"/>
<path d="M5.55339 31.5452C5.19151 32.5673 6.54683 33.308 7.22278 32.4575L13.662 24.3557C14.5381 23.2535 13.9491 21.6211 12.5675 21.3221C11.4244 21.0746 10.3661 20.5276 9.50531 19.7407C8.61264 18.9247 7.16125 19.4467 7.00791 20.6419L6.97252 20.9177C6.91746 21.3469 6.89906 21.7799 6.91751 22.2121L6.92544 22.3977C7.05812 25.5058 6.59245 28.6104 5.55339 31.5452Z" fill="#FF823F"/>
</svg>
